NotoSansOldSogdian-Regular.ufo
<glyph name="u10F00" format="2">
  <advance width="529"/>
  <unicode hex="10F00"/>
  <outline>
    <contour>
      <point x="30" y="0" type="line"/>
      <point x="473" y="0" type="line"/>
      <point x="473" y="65" type="line"/>
      <point x="431" y="82"/>
      <point x="344" y="156"/>
      <point x="305" y="198" type="curve"/>
      <point x="375" y="255"/>
      <point x="447" y="332"/>
      <point x="484" y="392" type="curve"/>
      <point x="423" y="431" type="line"/>
      <point x="385" y="375"/>
      <point x="319" y="305"/>
      <point x="257" y="249" type="curve"/>
      <point x="204" y="312"/>
      <point x="164" y="372"/>
      <point x="138" y="427" type="curve"/>
      <point x="70" y="391" type="line"/>
      <point x="126" y="268"/>
      <point x="255" y="124"/>
      <point x="338" y="78" type="curve"/>
      <point x="338" y="72" type="line"/>
      <point x="318" y="73"/>
      <point x="210" y="76"/>
      <point x="193" y="76" type="curve" smooth="yes"/>
      <point x="30" y="76" type="line"/>
    </contour>
  </outline>
</glyph>
<glyph name="u10F01" format="2">
  <advance width="722"/>
  <unicode hex="10F01"/>
  <outline>
    <contour>
      <point x="20" y="0" type="line"/>
      <point x="666" y="0" type="line"/>
      <point x="666" y="65" type="line"/>
      <point x="624" y="82"/>
      <point x="537" y="156"/>
      <point x="498" y="198" type="curve"/>
      <point x="568" y="255"/>
      <point x="640" y="332"/>
      <point x="677" y="392" type="curve"/>
      <point x="616" y="431" type="line"/>
      <point x="578" y="375"/>
      <point x="513" y="306"/>
      <point x="451" y="250" type="curve"/>
      <point x="398" y="313"/>
      <point x="356" y="372"/>
      <point x="331" y="427" type="curve"/>
      <point x="263" y="391" type="line"/>
      <point x="316" y="268"/>
      <point x="445" y="124"/>
      <point x="528" y="78" type="curve"/>
      <point x="528" y="72" type="line" smooth="yes"/>
      <point x="508" y="73"/>
      <point x="400" y="76"/>
      <point x="383" y="76" type="curve" smooth="yes"/>
      <point x="20" y="76" type="line"/>
    </contour>
  </outline>
</glyph>
<glyph name="u10F02" format="2">
  <advance width="467"/>
  <unicode hex="10F02"/>
  <outline>
    <contour>
      <point x="290" y="293" type="curve" smooth="yes"/>
      <point x="204" y="293"/>
      <point x="130" y="307"/>
      <point x="130" y="402" type="curve" smooth="yes"/>
      <point x="130" y="407"/>
      <point x="130" y="410"/>
      <point x="131" y="424" type="curve"/>
      <point x="63" y="424" type="line"/>
      <point x="60" y="411"/>
      <point x="58" y="389"/>
      <point x="58" y="375" type="curve" smooth="yes"/>
      <point x="58" y="239"/>
      <point x="181" y="219"/>
      <point x="289" y="219" type="curve" smooth="yes"/>
      <point x="302" y="219"/>
      <point x="323" y="219"/>
      <point x="350" y="221" type="curve"/>
      <point x="347" y="159"/>
      <point x="335" y="122"/>
      <point x="306" y="102" type="curve" smooth="yes"/>
      <point x="283" y="86"/>
      <point x="240" y="76"/>
      <point x="193" y="76" type="curve" smooth="yes"/>
      <point x="25" y="76" type="line"/>
      <point x="25" y="0" type="line"/>
      <point x="181" y="0" type="line" smooth="yes"/>
      <point x="259" y="0"/>
      <point x="316" y="15"/>
      <point x="349" y="38" type="curve" smooth="yes"/>
      <point x="407" y="78"/>
      <point x="427" y="161"/>
      <point x="427" y="250" type="curve" smooth="yes"/>
      <point x="427" y="307"/>
      <point x="425" y="365"/>
      <point x="419" y="426" type="curve"/>
      <point x="343" y="422" type="line"/>
      <point x="346" y="380"/>
      <point x="349" y="332"/>
      <point x="350" y="295" type="curve"/>
      <point x="330" y="293"/>
      <point x="312" y="293"/>
    </contour>
  </outline>
</glyph>
<glyph name="u10F03" format="2">
  <advance width="701"/>
  <unicode hex="10F03"/>
  <outline>
    <contour>
      <point x="524" y="293" type="curve" smooth="yes"/>
      <point x="438" y="293"/>
      <point x="364" y="307"/>
      <point x="364" y="402" type="curve" smooth="yes"/>
      <point x="364" y="407"/>
      <point x="364" y="410"/>
      <point x="365" y="424" type="curve"/>
      <point x="297" y="424" type="line"/>
      <point x="294" y="411"/>
      <point x="292" y="389"/>
      <point x="292" y="375" type="curve" smooth="yes"/>
      <point x="292" y="239"/>
      <point x="415" y="219"/>
      <point x="523" y="219" type="curve" smooth="yes"/>
      <point x="536" y="219"/>
      <point x="557" y="219"/>
      <point x="584" y="221" type="curve"/>
      <point x="581" y="159"/>
      <point x="569" y="122"/>
      <point x="540" y="102" type="curve" smooth="yes"/>
      <point x="517" y="86"/>
      <point x="474" y="76"/>
      <point x="427" y="76" type="curve" smooth="yes"/>
      <point x="20" y="76" type="line"/>
      <point x="20" y="0" type="line"/>
      <point x="415" y="0" type="line" smooth="yes"/>
      <point x="493" y="0"/>
      <point x="550" y="15"/>
      <point x="583" y="38" type="curve" smooth="yes"/>
      <point x="641" y="78"/>
      <point x="661" y="161"/>
      <point x="661" y="250" type="curve" smooth="yes"/>
      <point x="661" y="307"/>
      <point x="659" y="365"/>
      <point x="653" y="426" type="curve"/>
      <point x="577" y="422" type="line"/>
      <point x="580" y="380"/>
      <point x="583" y="332"/>
      <point x="584" y="295" type="curve"/>
      <point x="564" y="293"/>
      <point x="546" y="293"/>
    </contour>
  </outline>
</glyph>
<glyph name="u10F04" format="2">
  <advance width="618"/>
  <unicode hex="10F04"/>
  <outline>
    <contour>
      <point x="131" y="209" type="curve" smooth="yes"/>
      <point x="131" y="337" type="line"/>
      <point x="133" y="340" type="line"/>
      <point x="194" y="275" type="line" smooth="yes"/>
      <point x="248" y="218"/>
      <point x="326" y="139"/>
      <point x="388" y="80" type="curve" smooth="yes"/>
      <point x="448" y="22"/>
      <point x="474" y="1"/>
      <point x="489" y="-6" type="curve"/>
      <point x="561" y="-4" type="line"/>
      <point x="547" y="23"/>
      <point x="534" y="60"/>
      <point x="525" y="101" type="curve" smooth="yes"/>
      <point x="519" y="126"/>
      <point x="515" y="177"/>
      <point x="515" y="200" type="curve" smooth="yes"/>
      <point x="515" y="296"/>
      <point x="541" y="346"/>
      <point x="608" y="364" type="curve"/>
      <point x="608" y="440" type="line"/>
      <point x="488" y="416"/>
      <point x="441" y="326"/>
      <point x="441" y="203" type="curve" smooth="yes"/>
      <point x="441" y="192"/>
      <point x="443" y="147"/>
      <point x="450" y="125" type="curve"/>
      <point x="447" y="124" type="line"/>
      <point x="421" y="150"/>
      <point x="387" y="186"/>
      <point x="348" y="227" type="curve" smooth="yes"/>
      <point x="296" y="283"/>
      <point x="237" y="345"/>
      <point x="197" y="384" type="curve" smooth="yes"/>
      <point x="166" y="414"/>
      <point x="147" y="425"/>
      <point x="117" y="425" type="curve" smooth="yes"/>
      <point x="86" y="425"/>
      <point x="64" y="413"/>
      <point x="61" y="380" type="curve" smooth="yes"/>
      <point x="58" y="350"/>
      <point x="55" y="235"/>
      <point x="55" y="190" type="curve" smooth="yes"/>
      <point x="55" y="158"/>
      <point x="56" y="61"/>
      <point x="59" y="0" type="curve"/>
      <point x="135" y="0" type="line"/>
      <point x="132" y="76"/>
      <point x="131" y="176"/>
    </contour>
  </outline>
</glyph>
<glyph name="u10F05" format="2">
  <advance width="561"/>
  <unicode hex="10F05"/>
  <outline>
    <contour>
      <point x="430" y="0" type="curve"/>
      <point x="506" y="0" type="line"/>
      <point x="503" y="76"/>
      <point x="502" y="176"/>
      <point x="502" y="209" type="curve" smooth="yes"/>
      <point x="502" y="242"/>
      <point x="503" y="350"/>
      <point x="506" y="426" type="curve"/>
      <point x="430" y="422" type="line"/>
      <point x="428" y="384"/>
      <point x="426" y="290"/>
      <point x="426" y="273" type="curve"/>
      <point x="386" y="260"/>
      <point x="359" y="253"/>
      <point x="296" y="237" type="curve"/>
      <point x="298" y="256"/>
      <point x="298" y="265"/>
      <point x="298" y="269" type="curve" smooth="yes"/>
      <point x="298" y="356"/>
      <point x="252" y="430"/>
      <point x="140" y="430" type="curve" smooth="yes"/>
      <point x="106" y="430"/>
      <point x="60" y="419"/>
      <point x="30" y="394" type="curve"/>
      <point x="43" y="334" type="line"/>
      <point x="79" y="358"/>
      <point x="114" y="361"/>
      <point x="131" y="361" type="curve" smooth="yes"/>
      <point x="177" y="361"/>
      <point x="221" y="336"/>
      <point x="221" y="259" type="curve" smooth="yes"/>
      <point x="221" y="244"/>
      <point x="220" y="230"/>
      <point x="218" y="218" type="curve"/>
      <point x="172" y="206"/>
      <point x="104" y="189"/>
      <point x="49" y="178" type="curve"/>
      <point x="60" y="108" type="line"/>
      <point x="122" y="121"/>
      <point x="233" y="148"/>
      <point x="265" y="156" type="curve" smooth="yes"/>
      <point x="282" y="160"/>
      <point x="366" y="183"/>
      <point x="426" y="200" type="curve"/>
      <point x="426" y="164"/>
      <point x="427" y="59"/>
    </contour>
  </outline>
</glyph>
<glyph name="u10F06" format="2">
  <advance width="797"/>
  <unicode hex="10F06"/>
  <outline>
    <contour>
      <point x="449" y="209" type="line"/>
      <point x="433" y="279" type="line"/>
      <point x="255" y="279" type="line" smooth="yes"/>
      <point x="160" y="279"/>
      <point x="103" y="242"/>
      <point x="70" y="188" type="curve" smooth="yes"/>
      <point x="43" y="144"/>
      <point x="30" y="94"/>
      <point x="30" y="50" type="curve" smooth="yes"/>
      <point x="30" y="20"/>
      <point x="45" y="0"/>
      <point x="77" y="0" type="curve"/>
      <point x="643" y="0" type="line" smooth="yes"/>
      <point x="721" y="0"/>
      <point x="752" y="44"/>
      <point x="752" y="106" type="curve" smooth="yes"/>
      <point x="752" y="131"/>
      <point x="747" y="159"/>
      <point x="734" y="199" type="curve" smooth="yes"/>
      <point x="715" y="258"/>
      <point x="682" y="342"/>
      <point x="647" y="428" type="curve"/>
      <point x="564" y="415" type="line"/>
      <point x="606" y="314"/>
      <point x="646" y="213"/>
      <point x="668" y="147" type="curve" smooth="yes"/>
      <point x="672" y="134"/>
      <point x="676" y="116"/>
      <point x="676" y="104" type="curve" smooth="yes"/>
      <point x="676" y="92"/>
      <point x="673" y="76"/>
      <point x="648" y="76" type="curve" smooth="yes"/>
      <point x="105" y="76" type="line"/>
      <point x="114" y="171"/>
      <point x="157" y="209"/>
      <point x="258" y="209" type="curve" smooth="yes"/>
    </contour>
  </outline>
</glyph>
<glyph name="u10F07" format="2">
  <advance width="432"/>
  <unicode hex="10F07"/>
  <outline>
    <contour>
      <point x="91" y="68" type="curve"/>
      <point x="85" y="0" type="line"/>
      <point x="103" y="-4"/>
      <point x="119" y="-5"/>
      <point x="138" y="-5" type="curve" smooth="yes"/>
      <point x="307" y="-5"/>
      <point x="402" y="93"/>
      <point x="402" y="235" type="curve" smooth="yes"/>
      <point x="402" y="348"/>
      <point x="327" y="435"/>
      <point x="199" y="435" type="curve" smooth="yes"/>
      <point x="116" y="435"/>
      <point x="59" y="393"/>
      <point x="30" y="346" type="curve"/>
      <point x="83" y="312" type="line"/>
      <point x="108" y="349"/>
      <point x="156" y="366"/>
      <point x="193" y="366" type="curve" smooth="yes"/>
      <point x="245" y="366"/>
      <point x="323" y="344"/>
      <point x="323" y="232" type="curve" smooth="yes"/>
      <point x="323" y="112"/>
      <point x="235" y="64"/>
      <point x="137" y="64" type="curve" smooth="yes"/>
      <point x="127" y="64"/>
      <point x="104" y="65"/>
    </contour>
  </outline>
</glyph>
<glyph name="u10F08" format="2">
  <advance width="206"/>
  <unicode hex="10F08"/>
  <outline>
    <contour>
      <point x="25" y="76" type="curve"/>
      <point x="25" y="0" type="line"/>
      <point x="32" y="-1"/>
      <point x="33" y="-1"/>
      <point x="40" y="-1" type="curve" smooth="yes"/>
      <point x="82" y="-1"/>
      <point x="111" y="16"/>
      <point x="129" y="50" type="curve" smooth="yes"/>
      <point x="149" y="88"/>
      <point x="151" y="148"/>
      <point x="151" y="250" type="curve" smooth="yes"/>
      <point x="151" y="307"/>
      <point x="150" y="365"/>
      <point x="147" y="426" type="curve"/>
      <point x="71" y="422" type="line"/>
      <point x="74" y="346"/>
      <point x="75" y="286"/>
      <point x="75" y="253" type="curve" smooth="yes"/>
      <point x="75" y="189"/>
      <point x="74" y="142"/>
      <point x="70" y="116" type="curve" smooth="yes"/>
      <point x="64" y="78"/>
      <point x="47" y="76"/>
    </contour>
  </outline>
</glyph>
<glyph name="u10F09" format="2">
  <advance width="643"/>
  <unicode hex="10F09"/>
  <outline>
    <contour>
      <point x="512" y="88" type="curve"/>
      <point x="510" y="85" type="line"/>
      <point x="486" y="105"/>
      <point x="316" y="247"/>
      <point x="236" y="336" type="curve" smooth="yes"/>
      <point x="208" y="367"/>
      <point x="189" y="395"/>
      <point x="168" y="429" type="curve"/>
      <point x="100" y="426" type="line"/>
      <point x="104" y="387"/>
      <point x="129" y="329"/>
      <point x="133" y="312" type="curve" smooth="yes"/>
      <point x="138" y="292"/>
      <point x="141" y="279"/>
      <point x="141" y="256" type="curve" smooth="yes"/>
      <point x="141" y="160"/>
      <point x="107" y="76"/>
      <point x="20" y="58" type="curve"/>
      <point x="20" y="-18" type="line"/>
      <point x="155" y="5"/>
      <point x="208" y="115"/>
      <point x="213" y="247" type="curve"/>
      <point x="275" y="177"/>
      <point x="365" y="101"/>
      <point x="443" y="40" type="curve" smooth="yes"/>
      <point x="477" y="13"/>
      <point x="501" y="-3"/>
      <point x="531" y="-3" type="curve" smooth="yes"/>
      <point x="562" y="-3"/>
      <point x="584" y="10"/>
      <point x="584" y="43" type="curve" smooth="yes"/>
      <point x="584" y="213" type="line" smooth="yes"/>
      <point x="584" y="246"/>
      <point x="585" y="350"/>
      <point x="588" y="426" type="curve"/>
      <point x="512" y="422" type="line"/>
      <point x="509" y="361"/>
      <point x="508" y="264"/>
      <point x="508" y="232" type="curve" smooth="yes"/>
      <point x="508" y="187"/>
      <point x="509" y="118"/>
    </contour>
  </outline>
</glyph>
<glyph name="u10F0A" format="2">
  <advance width="404"/>
  <unicode hex="10F0A"/>
  <outline>
    <contour>
      <point x="28" y="232" type="curve"/>
      <point x="26" y="171" type="line"/>
      <point x="84" y="170"/>
      <point x="149" y="168"/>
      <point x="184" y="166" type="curve" smooth="yes"/>
      <point x="276" y="160"/>
      <point x="294" y="140"/>
      <point x="294" y="105" type="curve" smooth="yes"/>
      <point x="294" y="86"/>
      <point x="285" y="72"/>
      <point x="274" y="59" type="curve" smooth="yes"/>
      <point x="252" y="33"/>
      <point x="216" y="7"/>
      <point x="171" y="-19" type="curve"/>
      <point x="214" y="-73" type="line"/>
      <point x="293" y="-31"/>
      <point x="374" y="30"/>
      <point x="374" y="121" type="curve" smooth="yes"/>
      <point x="374" y="163"/>
      <point x="359" y="224"/>
      <point x="209" y="236" type="curve" smooth="yes"/>
      <point x="189" y="238"/>
      <point x="157" y="239"/>
      <point x="125" y="240" type="curve"/>
      <point x="171" y="290"/>
      <point x="218" y="350"/>
      <point x="253" y="399" type="curve"/>
      <point x="186" y="431" type="line"/>
      <point x="137" y="366"/>
      <point x="80" y="288"/>
    </contour>
  </outline>
</glyph>
<glyph name="u10F0B" format="2">
  <advance width="454"/>
  <unicode hex="10F0B"/>
  <outline>
    <contour>
      <point x="-112" y="-88" type="curve"/>
      <point x="-112" y="-158" type="line"/>
      <point x="-92" y="-163"/>
      <point x="-60" y="-165"/>
      <point x="-43" y="-165" type="curve" smooth="yes"/>
      <point x="134" y="-165"/>
      <point x="242" y="-65"/>
      <point x="323" y="100" type="curve" smooth="yes"/>
      <point x="372" y="200"/>
      <point x="408" y="316"/>
      <point x="427" y="417" type="curve"/>
      <point x="355" y="426" type="line"/>
      <point x="343" y="366"/>
      <point x="324" y="298"/>
      <point x="300" y="233" type="curve"/>
      <point x="163" y="234"/>
      <point x="112" y="342"/>
      <point x="96" y="434" type="curve"/>
      <point x="20" y="416" type="line"/>
      <point x="40" y="293"/>
      <point x="100" y="176"/>
      <point x="271" y="162" type="curve"/>
      <point x="204" y="16"/>
      <point x="121" y="-94"/>
      <point x="-44" y="-94" type="curve" smooth="yes"/>
      <point x="-56" y="-94"/>
      <point x="-95" y="-91"/>
    </contour>
  </outline>
</glyph>
<glyph name="u10F0C" format="2">
  <advance width="486"/>
  <unicode hex="10F0C"/>
  <outline>
    <contour>
      <point x="20" y="0" type="line"/>
      <point x="332" y="0" type="line"/>
      <point x="410" y="0"/>
      <point x="441" y="44"/>
      <point x="441" y="106" type="curve" smooth="yes"/>
      <point x="441" y="131"/>
      <point x="436" y="159"/>
      <point x="423" y="199" type="curve" smooth="yes"/>
      <point x="376" y="342"/>
      <point x="250" y="634"/>
      <point x="201" y="747" type="curve"/>
      <point x="123" y="730" type="line"/>
      <point x="171" y="621"/>
      <point x="307" y="295"/>
      <point x="357" y="147" type="curve" smooth="yes"/>
      <point x="361" y="134"/>
      <point x="365" y="116"/>
      <point x="365" y="104" type="curve" smooth="yes"/>
      <point x="365" y="92"/>
      <point x="362" y="76"/>
      <point x="337" y="76" type="curve" smooth="yes"/>
      <point x="20" y="76" type="line"/>
    </contour>
  </outline>
</glyph>
<glyph name="u10F0D" format="2">
  <advance width="564"/>
  <unicode hex="10F0D"/>
  <outline>
    <contour>
      <point x="434" y="415" type="curve"/>
      <point x="366" y="431" type="line"/>
      <point x="342" y="359"/>
      <point x="316" y="295"/>
      <point x="279" y="240" type="curve"/>
      <point x="207" y="262"/>
      <point x="146" y="326"/>
      <point x="111" y="431" type="curve"/>
      <point x="39" y="407" type="line"/>
      <point x="70" y="306"/>
      <point x="126" y="217"/>
      <point x="231" y="181" type="curve"/>
      <point x="181" y="131"/>
      <point x="116" y="94"/>
      <point x="25" y="74" type="curve"/>
      <point x="25" y="-1" type="line"/>
      <point x="126" y="13"/>
      <point x="226" y="73"/>
      <point x="305" y="164" type="curve"/>
      <point x="334" y="160"/>
      <point x="364" y="159"/>
      <point x="390" y="159" type="curve" smooth="yes"/>
      <point x="412" y="159"/>
      <point x="452" y="161"/>
      <point x="467" y="163" type="curve"/>
      <point x="469" y="160"/>
      <point x="469" y="154"/>
      <point x="469" y="152" type="curve" smooth="yes"/>
      <point x="469" y="127"/>
      <point x="423" y="64"/>
      <point x="381" y="20" type="curve"/>
      <point x="441" y="-11" type="line"/>
      <point x="492" y="37"/>
      <point x="544" y="115"/>
      <point x="544" y="167" type="curve" smooth="yes"/>
      <point x="544" y="209"/>
      <point x="526" y="233"/>
      <point x="487" y="233" type="curve" smooth="yes"/>
      <point x="473" y="233"/>
      <point x="431" y="228"/>
      <point x="380" y="228" type="curve" smooth="yes"/>
      <point x="372" y="228"/>
      <point x="363" y="228"/>
      <point x="353" y="229" type="curve"/>
      <point x="389" y="284"/>
      <point x="417" y="346"/>
    </contour>
  </outline>
</glyph>
<glyph name="u10F0E" format="2">
  <advance width="196"/>
  <unicode hex="10F0E"/>
  <outline>
    <contour>
      <point x="146" y="198" type="curve" smooth="yes"/>
      <point x="146" y="250" type="line" smooth="yes"/>
      <point x="146" y="307"/>
      <point x="145" y="365"/>
      <point x="142" y="426" type="curve"/>
      <point x="66" y="422" type="line"/>
      <point x="69" y="346"/>
      <point x="70" y="286"/>
      <point x="70" y="253" type="curve" smooth="yes"/>
      <point x="70" y="211" type="line" smooth="yes"/>
      <point x="70" y="110"/>
      <point x="44" y="4"/>
      <point x="-59" y="-70" type="curve"/>
      <point x="-14" y="-120" type="line"/>
      <point x="72" y="-74"/>
      <point x="146" y="40"/>
    </contour>
  </outline>
</glyph>
<glyph name="u10F0F" format="2">
  <advance width="631"/>
  <unicode hex="10F0F"/>
  <outline>
    <contour>
      <point x="515" y="253" type="curve" smooth="yes"/>
      <point x="515" y="171"/>
      <point x="504" y="126"/>
      <point x="470" y="102" type="curve" smooth="yes"/>
      <point x="447" y="86"/>
      <point x="404" y="76"/>
      <point x="357" y="76" type="curve" smooth="yes"/>
      <point x="20" y="76" type="line"/>
      <point x="20" y="0" type="line"/>
      <point x="345" y="0" type="line" smooth="yes"/>
      <point x="423" y="0"/>
      <point x="480" y="15"/>
      <point x="513" y="38" type="curve" smooth="yes"/>
      <point x="571" y="78"/>
      <point x="591" y="161"/>
      <point x="591" y="250" type="curve" smooth="yes"/>
      <point x="591" y="307"/>
      <point x="589" y="365"/>
      <point x="583" y="426" type="curve"/>
      <point x="507" y="422" type="line"/>
      <point x="512" y="342"/>
      <point x="515" y="286"/>
    </contour>
  </outline>
</glyph>
<glyph name="u10F10" format="2">
  <advance width="196"/>
  <unicode hex="10F10"/>
  <outline>
    <contour>
      <point x="62" y="-175" type="line"/>
      <point x="136" y="-175" type="line"/>
      <point x="141" y="-38"/>
      <point x="141" y="23"/>
      <point x="141" y="160" type="curve" smooth="yes"/>
      <point x="141" y="173"/>
      <point x="141" y="372"/>
      <point x="131" y="439" type="curve"/>
      <point x="55" y="436" type="line"/>
      <point x="61" y="361"/>
      <point x="62" y="181"/>
      <point x="62" y="140" type="curve" smooth="yes"/>
    </contour>
  </outline>
</glyph>
<glyph name="u10F11" format="2">
  <advance width="670"/>
  <unicode hex="10F11"/>
  <outline>
    <contour>
      <point x="20" y="0" type="curve"/>
      <point x="96" y="0" type="line"/>
      <point x="190" y="103"/>
      <point x="232" y="158"/>
      <point x="307" y="235" type="curve" smooth="yes"/>
      <point x="385" y="315"/>
      <point x="428" y="345"/>
      <point x="475" y="345" type="curve" smooth="yes"/>
      <point x="542" y="345"/>
      <point x="551" y="275"/>
      <point x="551" y="212" type="curve" smooth="yes"/>
      <point x="551" y="97"/>
      <point x="509" y="63"/>
      <point x="401" y="63" type="curve"/>
      <point x="396" y="63" type="line"/>
      <point x="396" y="-1" type="line"/>
      <point x="408" y="-2"/>
      <point x="413" y="-2"/>
      <point x="425" y="-2" type="curve" smooth="yes"/>
      <point x="557" y="-2"/>
      <point x="630" y="55"/>
      <point x="630" y="224" type="curve" smooth="yes"/>
      <point x="630" y="327"/>
      <point x="599" y="416"/>
      <point x="484" y="416" type="curve" smooth="yes"/>
      <point x="427" y="416"/>
      <point x="370" y="396"/>
      <point x="304" y="334" type="curve" smooth="yes"/>
      <point x="260" y="292"/>
      <point x="185" y="205"/>
      <point x="148" y="159" type="curve"/>
      <point x="144" y="161" type="line"/>
      <point x="151" y="200"/>
      <point x="157" y="253"/>
      <point x="157" y="287" type="curve" smooth="yes"/>
      <point x="157" y="344"/>
      <point x="149" y="392"/>
      <point x="137" y="429" type="curve"/>
      <point x="60" y="421" type="line"/>
      <point x="74" y="359"/>
      <point x="79" y="304"/>
      <point x="79" y="247" type="curve" smooth="yes"/>
      <point x="79" y="163"/>
      <point x="66" y="76"/>
    </contour>
  </outline>
</glyph>
<glyph name="u10F12" format="2">
  <advance width="843"/>
  <unicode hex="10F12"/>
  <outline>
    <contour>
      <point x="269" y="426" type="curve"/>
      <point x="253" y="368" type="line"/>
      <point x="292" y="273"/>
      <point x="315" y="213"/>
      <point x="337" y="147" type="curve" smooth="yes"/>
      <point x="341" y="134"/>
      <point x="345" y="116"/>
      <point x="345" y="104" type="curve" smooth="yes"/>
      <point x="345" y="92"/>
      <point x="342" y="76"/>
      <point x="317" y="76" type="curve" smooth="yes"/>
      <point x="20" y="76" type="line"/>
      <point x="20" y="0" type="line"/>
      <point x="312" y="0" type="line" smooth="yes"/>
      <point x="390" y="0"/>
      <point x="421" y="44"/>
      <point x="421" y="106" type="curve" smooth="yes"/>
      <point x="421" y="131"/>
      <point x="417" y="159"/>
      <point x="403" y="199" type="curve" smooth="yes"/>
      <point x="389" y="240"/>
      <point x="370" y="293"/>
      <point x="348" y="352" type="curve"/>
      <point x="429" y="350"/>
      <point x="504" y="351"/>
      <point x="553" y="351" type="curve" smooth="yes"/>
      <point x="643" y="351"/>
      <point x="751" y="353"/>
      <point x="823" y="358" type="curve"/>
      <point x="823" y="429" type="line"/>
      <point x="743" y="425"/>
      <point x="653" y="423"/>
      <point x="557" y="423" type="curve" smooth="yes"/>
      <point x="493" y="423"/>
      <point x="317" y="423"/>
    </contour>
  </outline>
</glyph>
<glyph name="u10F13" format="2">
  <advance width="911"/>
  <unicode hex="10F13"/>
  <outline>
    <contour>
      <point x="26" y="247" type="curve"/>
      <point x="26" y="189" type="line"/>
      <point x="84" y="183"/>
      <point x="113" y="178"/>
      <point x="147" y="171" type="curve" smooth="yes"/>
      <point x="237" y="153"/>
      <point x="252" y="134"/>
      <point x="252" y="102" type="curve" smooth="yes"/>
      <point x="252" y="56"/>
      <point x="191" y="16"/>
      <point x="131" y="-19" type="curve"/>
      <point x="174" y="-73" type="line"/>
      <point x="253" y="-31"/>
      <point x="333" y="28"/>
      <point x="333" y="116" type="curve" smooth="yes"/>
      <point x="333" y="158"/>
      <point x="315" y="212"/>
      <point x="175" y="234" type="curve" smooth="yes"/>
      <point x="125" y="242" type="line"/>
      <point x="189" y="282"/>
      <point x="278" y="329"/>
      <point x="338" y="353" type="curve"/>
      <point x="429" y="101"/>
      <point x="504" y="-17"/>
      <point x="673" y="-17" type="curve" smooth="yes"/>
      <point x="832" y="-17"/>
      <point x="881" y="103"/>
      <point x="881" y="178" type="curve" smooth="yes"/>
      <point x="881" y="283"/>
      <point x="819" y="349"/>
      <point x="705" y="349" type="curve" smooth="yes"/>
      <point x="621" y="349"/>
      <point x="557" y="297"/>
      <point x="538" y="229" type="curve"/>
      <point x="592" y="207" type="line"/>
      <point x="610" y="247"/>
      <point x="650" y="279"/>
      <point x="704" y="279" type="curve" smooth="yes"/>
      <point x="775" y="279"/>
      <point x="807" y="239"/>
      <point x="807" y="178" type="curve" smooth="yes"/>
      <point x="807" y="135"/>
      <point x="782" y="55"/>
      <point x="680" y="55" type="curve" smooth="yes"/>
      <point x="558" y="55"/>
      <point x="488" y="136"/>
      <point x="395" y="426" type="curve"/>
      <point x="346" y="426" type="line"/>
      <point x="266" y="402"/>
      <point x="88" y="299"/>
    </contour>
  </outline>
</glyph>
<glyph name="u10F14" format="2">
  <advance width="426"/>
  <unicode hex="10F14"/>
  <anchor x="85" y="-381" name="bottom"/>
  <outline>
    <contour>
      <point x="43" y="281" type="curve" smooth="yes"/>
      <point x="43" y="167"/>
      <point x="131" y="115"/>
      <point x="265" y="115" type="curve" smooth="yes"/>
      <point x="291" y="115" type="line"/>
      <point x="227" y="5"/>
      <point x="99" y="-42"/>
      <point x="-37" y="-42" type="curve" smooth="yes"/>
      <point x="-40" y="-42"/>
      <point x="-51" y="-42"/>
      <point x="-57" y="-41" type="curve"/>
      <point x="-57" y="-109" type="line"/>
      <point x="-39" y="-111"/>
      <point x="-30" y="-112"/>
      <point x="-12" y="-112" type="curve" smooth="yes"/>
      <point x="191" y="-112"/>
      <point x="396" y="28"/>
      <point x="396" y="244" type="curve" smooth="yes"/>
      <point x="396" y="346"/>
      <point x="346" y="440"/>
      <point x="218" y="440" type="curve" smooth="yes"/>
      <point x="119" y="440"/>
      <point x="43" y="362"/>
    </contour>
    <contour>
      <point x="320" y="240" type="curve" smooth="yes"/>
      <point x="320" y="219"/>
      <point x="319" y="204"/>
      <point x="314" y="186" type="curve"/>
      <point x="266" y="186" type="line" smooth="yes"/>
      <point x="189" y="186"/>
      <point x="119" y="205"/>
      <point x="119" y="281" type="curve" smooth="yes"/>
      <point x="119" y="332"/>
      <point x="157" y="371"/>
      <point x="214" y="371" type="curve" smooth="yes"/>
      <point x="267" y="371"/>
      <point x="320" y="343"/>
    </contour>
  </outline>
</glyph>
<glyph name="u10F15" format="2">
  <advance width="505"/>
  <unicode hex="10F15"/>
  <outline>
    <contour>
      <point x="114" y="353" type="curve" smooth="yes"/>
      <point x="157" y="264"/>
      <point x="177" y="213"/>
      <point x="199" y="147" type="curve" smooth="yes"/>
      <point x="203" y="134"/>
      <point x="207" y="116"/>
      <point x="207" y="104" type="curve" smooth="yes"/>
      <point x="207" y="92"/>
      <point x="204" y="76"/>
      <point x="179" y="76" type="curve" smooth="yes"/>
      <point x="20" y="76" type="line"/>
      <point x="20" y="0" type="line"/>
      <point x="174" y="0" type="line" smooth="yes"/>
      <point x="252" y="0"/>
      <point x="283" y="44"/>
      <point x="283" y="106" type="curve" smooth="yes"/>
      <point x="283" y="131"/>
      <point x="278" y="159"/>
      <point x="265" y="199" type="curve" smooth="yes"/>
      <point x="252" y="238"/>
      <point x="232" y="289"/>
      <point x="207" y="343" type="curve"/>
      <point x="237" y="336"/>
      <point x="274" y="332"/>
      <point x="309" y="332" type="curve" smooth="yes"/>
      <point x="372" y="332"/>
      <point x="443" y="343"/>
      <point x="485" y="361" type="curve"/>
      <point x="485" y="432" type="line"/>
      <point x="480" y="432" type="line"/>
      <point x="441" y="418"/>
      <point x="381" y="404"/>
      <point x="324" y="404" type="curve" smooth="yes"/>
      <point x="293" y="404"/>
      <point x="254" y="407"/>
      <point x="228" y="412" type="curve" smooth="yes"/>
      <point x="191" y="419"/>
      <point x="175" y="426"/>
      <point x="146" y="426" type="curve" smooth="yes"/>
      <point x="123" y="426"/>
      <point x="105" y="410"/>
      <point x="105" y="387" type="curve" smooth="yes"/>
      <point x="105" y="377"/>
      <point x="107" y="367"/>
    </contour>
  </outline>
</glyph>
<glyph name="u10F16" format="2">
  <advance width="865"/>
  <unicode hex="10F16"/>
  <outline>
    <contour>
      <point x="474" y="353" type="curve" smooth="yes"/>
      <point x="517" y="264"/>
      <point x="537" y="213"/>
      <point x="559" y="147" type="curve" smooth="yes"/>
      <point x="563" y="134"/>
      <point x="567" y="116"/>
      <point x="567" y="104" type="curve" smooth="yes"/>
      <point x="567" y="92"/>
      <point x="564" y="76"/>
      <point x="539" y="76" type="curve" smooth="yes"/>
      <point x="20" y="76" type="line"/>
      <point x="20" y="0" type="line"/>
      <point x="534" y="0" type="line" smooth="yes"/>
      <point x="612" y="0"/>
      <point x="643" y="44"/>
      <point x="643" y="106" type="curve" smooth="yes"/>
      <point x="643" y="131"/>
      <point x="638" y="159"/>
      <point x="625" y="199" type="curve" smooth="yes"/>
      <point x="612" y="238"/>
      <point x="592" y="289"/>
      <point x="567" y="343" type="curve"/>
      <point x="597" y="336"/>
      <point x="634" y="332"/>
      <point x="669" y="332" type="curve" smooth="yes"/>
      <point x="732" y="332"/>
      <point x="803" y="343"/>
      <point x="845" y="361" type="curve"/>
      <point x="845" y="432" type="line"/>
      <point x="840" y="432" type="line"/>
      <point x="801" y="418"/>
      <point x="741" y="404"/>
      <point x="684" y="404" type="curve" smooth="yes"/>
      <point x="653" y="404"/>
      <point x="614" y="407"/>
      <point x="588" y="412" type="curve" smooth="yes"/>
      <point x="551" y="419"/>
      <point x="535" y="426"/>
      <point x="506" y="426" type="curve" smooth="yes"/>
      <point x="483" y="426"/>
      <point x="465" y="410"/>
      <point x="465" y="387" type="curve" smooth="yes"/>
      <point x="465" y="377"/>
      <point x="467" y="367"/>
    </contour>
  </outline>
</glyph>
<glyph name="u10F17" format="2">
  <advance width="447"/>
  <unicode hex="10F17"/>
  <outline>
    <contour>
      <point x="258" y="332" type="curve" smooth="yes"/>
      <point x="323" y="332"/>
      <point x="383" y="343"/>
      <point x="427" y="361" type="curve"/>
      <point x="427" y="433" type="line"/>
      <point x="421" y="433" type="line"/>
      <point x="382" y="419"/>
      <point x="334" y="405"/>
      <point x="266" y="405" type="curve" smooth="yes"/>
      <point x="234" y="405"/>
      <point x="210" y="408"/>
      <point x="181" y="413" type="curve" smooth="yes"/>
      <point x="141" y="420"/>
      <point x="123" y="426"/>
      <point x="100" y="426" type="curve" smooth="yes"/>
      <point x="78" y="426"/>
      <point x="55" y="413"/>
      <point x="55" y="380" type="curve" smooth="yes"/>
      <point x="55" y="354"/>
      <point x="59" y="278"/>
      <point x="59" y="162" type="curve" smooth="yes"/>
      <point x="59" y="-175" type="line"/>
      <point x="133" y="-175" type="line"/>
      <point x="138" y="-38"/>
      <point x="138" y="45"/>
      <point x="138" y="182" type="curve" smooth="yes"/>
      <point x="138" y="190"/>
      <point x="138" y="272"/>
      <point x="135" y="349" type="curve"/>
      <point x="171" y="339"/>
      <point x="213" y="332"/>
    </contour>
  </outline>
</glyph>
<glyph name="u10F18" format="2">
  <advance width="445"/>
  <unicode hex="10F18"/>
  <outline>
    <contour>
      <point x="21" y="69" type="curve"/>
      <point x="21" y="0" type="line"/>
      <point x="41" y="-3"/>
      <point x="56" y="-4"/>
      <point x="75" y="-4" type="curve" smooth="yes"/>
      <point x="236" y="-4"/>
      <point x="319" y="86"/>
      <point x="367" y="211" type="curve" smooth="yes"/>
      <point x="391" y="273"/>
      <point x="410" y="337"/>
      <point x="425" y="417" type="curve"/>
      <point x="353" y="426" type="line"/>
      <point x="340" y="359"/>
      <point x="327" y="309"/>
      <point x="311" y="264" type="curve"/>
      <point x="184" y="265"/>
      <point x="134" y="342"/>
      <point x="118" y="434" type="curve"/>
      <point x="42" y="416" type="line"/>
      <point x="64" y="292"/>
      <point x="122" y="206"/>
      <point x="282" y="193" type="curve"/>
      <point x="240" y="109"/>
      <point x="176" y="67"/>
      <point x="76" y="67" type="curve" smooth="yes"/>
      <point x="64" y="67"/>
      <point x="34" y="68"/>
    </contour>
  </outline>
</glyph>
<glyph name="u10F19" format="2">
  <advance width="974"/>
  <unicode hex="10F19"/>
  <outline>
    <contour>
      <point x="20" y="58" type="curve"/>
      <point x="20" y="-18" type="line"/>
      <point x="176" y="13"/>
      <point x="216" y="104"/>
      <point x="216" y="219" type="curve"/>
      <point x="241" y="209"/>
      <point x="271" y="207"/>
      <point x="296" y="207" type="curve" smooth="yes"/>
      <point x="362" y="207"/>
      <point x="454" y="225"/>
      <point x="548" y="249" type="curve"/>
      <point x="527" y="200"/>
      <point x="508" y="160"/>
      <point x="468" y="73" type="curve" smooth="yes"/>
      <point x="462" y="59"/>
      <point x="460" y="49"/>
      <point x="460" y="39" type="curve" smooth="yes"/>
      <point x="461" y="16"/>
      <point x="479" y="0"/>
      <point x="502" y="0" type="curve" smooth="yes"/>
      <point x="528" y="0"/>
      <point x="539" y="2"/>
      <point x="576" y="10" type="curve" smooth="yes"/>
      <point x="726" y="42"/>
      <point x="812" y="73"/>
      <point x="954" y="135" type="curve"/>
      <point x="954" y="213" type="line"/>
      <point x="807" y="150"/>
      <point x="707" y="117"/>
      <point x="552" y="83" type="curve"/>
      <point x="584" y="151"/>
      <point x="607" y="200"/>
      <point x="627" y="258" type="curve" smooth="yes"/>
      <point x="632" y="274"/>
      <point x="633" y="282"/>
      <point x="633" y="292" type="curve" smooth="yes"/>
      <point x="632" y="315"/>
      <point x="611" y="327"/>
      <point x="588" y="327" type="curve" smooth="yes"/>
      <point x="577" y="327"/>
      <point x="552" y="321"/>
      <point x="515" y="313" type="curve" smooth="yes"/>
      <point x="390" y="287"/>
      <point x="344" y="280"/>
      <point x="281" y="280" type="curve" smooth="yes"/>
      <point x="211" y="280"/>
      <point x="191" y="324"/>
      <point x="177" y="362" type="curve"/>
      <point x="106" y="343" type="line"/>
      <point x="117" y="304"/>
      <point x="128" y="274"/>
      <point x="134" y="260" type="curve" smooth="yes"/>
      <point x="139" y="246"/>
      <point x="142" y="235"/>
      <point x="142" y="222" type="curve" smooth="yes"/>
      <point x="142" y="143"/>
      <point x="129" y="85"/>
    </contour>
  </outline>
</glyph>
<glyph name="u10F1A" format="2">
  <advance width="601"/>
  <unicode hex="10F1A"/>
  <outline>
    <contour>
      <point x="20" y="58" type="curve"/>
      <point x="20" y="-18" type="line"/>
      <point x="182" y="8"/>
      <point x="236" y="129"/>
      <point x="236" y="293" type="curve" smooth="yes"/>
      <point x="236" y="307"/>
      <point x="236" y="321"/>
      <point x="235" y="336" type="curve"/>
      <point x="363" y="336" type="line" smooth="yes"/>
      <point x="470" y="336"/>
      <point x="482" y="286"/>
      <point x="482" y="223" type="curve" smooth="yes"/>
      <point x="482" y="108"/>
      <point x="390" y="63"/>
      <point x="282" y="63" type="curve" smooth="yes"/>
      <point x="269" y="63" type="line"/>
      <point x="269" y="-1" type="line"/>
      <point x="281" y="-2"/>
      <point x="294" y="-2"/>
      <point x="306" y="-2" type="curve" smooth="yes"/>
      <point x="438" y="-2"/>
      <point x="561" y="66"/>
      <point x="561" y="235" type="curve" smooth="yes"/>
      <point x="561" y="338"/>
      <point x="520" y="407"/>
      <point x="372" y="407" type="curve" smooth="yes"/>
      <point x="222" y="407" type="line"/>
      <point x="217" y="453" type="line"/>
      <point x="144" y="450" type="line"/>
      <point x="145" y="408"/>
      <point x="152" y="353"/>
      <point x="155" y="337" type="curve"/>
      <point x="156" y="317"/>
      <point x="157" y="296"/>
      <point x="157" y="277" type="curve" smooth="yes"/>
      <point x="157" y="153"/>
      <point x="125" y="77"/>
    </contour>
  </outline>
</glyph>
<glyph name="u10F1B" format="2">
  <advance width="1011"/>
  <unicode hex="10F1B"/>
  <outline>
    <contour>
      <point x="576" y="336" type="curve"/>
      <point x="576" y="176"/>
      <point x="541" y="76"/>
      <point x="364" y="76" type="curve" smooth="yes"/>
      <point x="20" y="76" type="line"/>
      <point x="20" y="0" type="line"/>
      <point x="352" y="0" type="line" smooth="yes"/>
      <point x="592" y="0"/>
      <point x="655" y="136"/>
      <point x="655" y="336" type="curve"/>
      <point x="773" y="336" type="line" smooth="yes"/>
      <point x="880" y="336"/>
      <point x="892" y="286"/>
      <point x="892" y="223" type="curve" smooth="yes"/>
      <point x="892" y="108"/>
      <point x="800" y="63"/>
      <point x="692" y="63" type="curve" smooth="yes"/>
      <point x="679" y="63" type="line"/>
      <point x="679" y="-1" type="line"/>
      <point x="691" y="-2"/>
      <point x="704" y="-2"/>
      <point x="716" y="-2" type="curve" smooth="yes"/>
      <point x="848" y="-2"/>
      <point x="971" y="66"/>
      <point x="971" y="235" type="curve" smooth="yes"/>
      <point x="971" y="338"/>
      <point x="930" y="407"/>
      <point x="782" y="407" type="curve" smooth="yes"/>
      <point x="642" y="407" type="line"/>
      <point x="637" y="452" type="line"/>
      <point x="564" y="449" type="line"/>
      <point x="565" y="407"/>
      <point x="572" y="359"/>
    </contour>
  </outline>
</glyph>
<glyph name="u10F1C" format="2">
  <advance width="522"/>
  <unicode hex="10F1C"/>
  <outline>
    <contour>
      <point x="62" y="-175" type="line"/>
      <point x="136" y="-175" type="line"/>
      <point x="141" y="-38"/>
      <point x="141" y="45"/>
      <point x="141" y="182" type="curve" smooth="yes"/>
      <point x="141" y="189"/>
      <point x="141" y="263"/>
      <point x="139" y="336" type="curve"/>
      <point x="282" y="336" type="line" smooth="yes"/>
      <point x="389" y="336"/>
      <point x="403" y="286"/>
      <point x="403" y="223" type="curve" smooth="yes"/>
      <point x="403" y="108"/>
      <point x="314" y="73"/>
      <point x="207" y="73" type="curve"/>
      <point x="207" y="9" type="line"/>
      <point x="212" y="8"/>
      <point x="215" y="8"/>
      <point x="222" y="8" type="curve" smooth="yes"/>
      <point x="354" y="8"/>
      <point x="482" y="66"/>
      <point x="482" y="235" type="curve" smooth="yes"/>
      <point x="482" y="338"/>
      <point x="439" y="407"/>
      <point x="291" y="407" type="curve" smooth="yes"/>
      <point x="136" y="407" type="line"/>
      <point x="135" y="421"/>
      <point x="133" y="447"/>
      <point x="131" y="461" type="curve"/>
      <point x="55" y="458" type="line"/>
      <point x="61" y="383"/>
      <point x="62" y="203"/>
      <point x="62" y="162" type="curve" smooth="yes"/>
    </contour>
  </outline>
</glyph>
<glyph name="u10F1D" format="2">
  <advance width="343"/>
  <unicode hex="10F1D"/>
  <outline>
    <contour>
      <point x="20" y="112" type="line"/>
      <point x="20" y="39" type="line"/>
      <point x="57" y="10"/>
      <point x="97" y="-1"/>
      <point x="138" y="-1" type="curve" smooth="yes"/>
      <point x="206" y="-1"/>
      <point x="251" y="26"/>
      <point x="270" y="60" type="curve" smooth="yes"/>
      <point x="290" y="95"/>
      <point x="293" y="136"/>
      <point x="293" y="235" type="curve" smooth="yes"/>
      <point x="293" y="292"/>
      <point x="292" y="365"/>
      <point x="289" y="426" type="curve"/>
      <point x="213" y="422" type="line"/>
      <point x="216" y="346"/>
      <point x="217" y="266"/>
      <point x="217" y="233" type="curve" smooth="yes"/>
      <point x="217" y="190"/>
      <point x="217" y="148"/>
      <point x="212" y="125" type="curve" smooth="yes"/>
      <point x="204" y="88"/>
      <point x="185" y="75"/>
      <point x="139" y="75" type="curve" smooth="yes"/>
      <point x="96" y="75"/>
      <point x="64" y="84"/>
      <point x="24" y="112" type="curve"/>
    </contour>
  </outline>
</glyph>
<glyph name="u10F1E" format="2">
  <advance width="573"/>
  <unicode hex="10F1E"/>
  <outline>
    <contour>
      <point x="20" y="112" type="line"/>
      <point x="20" y="39" type="line"/>
      <point x="57" y="10"/>
      <point x="97" y="-1"/>
      <point x="138" y="-1" type="curve" smooth="yes"/>
      <point x="190" y="-1"/>
      <point x="229" y="15"/>
      <point x="252" y="37" type="curve"/>
      <point x="289" y="10"/>
      <point x="328" y="-1"/>
      <point x="368" y="-1" type="curve" smooth="yes"/>
      <point x="436" y="-1"/>
      <point x="481" y="26"/>
      <point x="500" y="60" type="curve" smooth="yes"/>
      <point x="520" y="95"/>
      <point x="523" y="136"/>
      <point x="523" y="235" type="curve" smooth="yes"/>
      <point x="523" y="292"/>
      <point x="522" y="365"/>
      <point x="519" y="426" type="curve"/>
      <point x="443" y="422" type="line"/>
      <point x="446" y="346"/>
      <point x="447" y="266"/>
      <point x="447" y="233" type="curve" smooth="yes"/>
      <point x="447" y="190"/>
      <point x="447" y="148"/>
      <point x="442" y="125" type="curve" smooth="yes"/>
      <point x="434" y="88"/>
      <point x="415" y="75"/>
      <point x="369" y="75" type="curve" smooth="yes"/>
      <point x="337" y="75"/>
      <point x="311" y="80"/>
      <point x="284" y="94" type="curve"/>
      <point x="292" y="124"/>
      <point x="293" y="165"/>
      <point x="293" y="235" type="curve" smooth="yes"/>
      <point x="293" y="292"/>
      <point x="292" y="355"/>
      <point x="289" y="416" type="curve"/>
      <point x="213" y="412" type="line"/>
      <point x="216" y="336"/>
      <point x="217" y="266"/>
      <point x="217" y="233" type="curve" smooth="yes"/>
      <point x="217" y="190"/>
      <point x="217" y="148"/>
      <point x="212" y="125" type="curve" smooth="yes"/>
      <point x="204" y="88"/>
      <point x="185" y="75"/>
      <point x="139" y="75" type="curve" smooth="yes"/>
      <point x="96" y="75"/>
      <point x="64" y="84"/>
      <point x="24" y="112" type="curve"/>
    </contour>
  </outline>
</glyph>
<glyph name="u10F20" format="2">
  <advance width="1033"/>
  <unicode hex="10F20"/>
  <outline>
    <contour>
      <point x="20" y="112" type="line"/>
      <point x="20" y="39" type="line"/>
      <point x="57" y="10"/>
      <point x="97" y="-1"/>
      <point x="138" y="-1" type="curve" smooth="yes"/>
      <point x="190" y="-1"/>
      <point x="229" y="15"/>
      <point x="252" y="37" type="curve"/>
      <point x="289" y="10"/>
      <point x="328" y="-1"/>
      <point x="368" y="-1" type="curve" smooth="yes"/>
      <point x="420" y="-1"/>
      <point x="459" y="15"/>
      <point x="482" y="37" type="curve"/>
      <point x="519" y="10"/>
      <point x="558" y="-1"/>
      <point x="598" y="-1" type="curve" smooth="yes"/>
      <point x="650" y="-1"/>
      <point x="689" y="15"/>
      <point x="712" y="37" type="curve"/>
      <point x="749" y="10"/>
      <point x="788" y="-1"/>
      <point x="828" y="-1" type="curve" smooth="yes"/>
      <point x="896" y="-1"/>
      <point x="941" y="26"/>
      <point x="960" y="60" type="curve" smooth="yes"/>
      <point x="980" y="95"/>
      <point x="983" y="136"/>
      <point x="983" y="235" type="curve" smooth="yes"/>
      <point x="983" y="292"/>
      <point x="982" y="365"/>
      <point x="979" y="426" type="curve"/>
      <point x="903" y="422" type="line"/>
      <point x="906" y="346"/>
      <point x="907" y="266"/>
      <point x="907" y="233" type="curve" smooth="yes"/>
      <point x="907" y="190"/>
      <point x="907" y="148"/>
      <point x="902" y="125" type="curve" smooth="yes"/>
      <point x="894" y="88"/>
      <point x="875" y="75"/>
      <point x="829" y="75" type="curve" smooth="yes"/>
      <point x="797" y="75"/>
      <point x="771" y="80"/>
      <point x="744" y="94" type="curve"/>
      <point x="752" y="124"/>
      <point x="753" y="165"/>
      <point x="753" y="235" type="curve" smooth="yes"/>
      <point x="753" y="292"/>
      <point x="752" y="355"/>
      <point x="749" y="416" type="curve"/>
      <point x="673" y="412" type="line"/>
      <point x="676" y="336"/>
      <point x="677" y="266"/>
      <point x="677" y="233" type="curve" smooth="yes"/>
      <point x="677" y="190"/>
      <point x="677" y="148"/>
      <point x="672" y="125" type="curve" smooth="yes"/>
      <point x="664" y="88"/>
      <point x="645" y="75"/>
      <point x="599" y="75" type="curve" smooth="yes"/>
      <point x="567" y="75"/>
      <point x="541" y="80"/>
      <point x="514" y="94" type="curve"/>
      <point x="522" y="124"/>
      <point x="523" y="165"/>
      <point x="523" y="235" type="curve" smooth="yes"/>
      <point x="523" y="292"/>
      <point x="522" y="345"/>
      <point x="519" y="406" type="curve"/>
      <point x="443" y="402" type="line"/>
      <point x="446" y="326"/>
      <point x="447" y="266"/>
      <point x="447" y="233" type="curve" smooth="yes"/>
      <point x="447" y="190"/>
      <point x="447" y="148"/>
      <point x="442" y="125" type="curve" smooth="yes"/>
      <point x="434" y="88"/>
      <point x="415" y="75"/>
      <point x="369" y="75" type="curve" smooth="yes"/>
      <point x="337" y="75"/>
      <point x="311" y="80"/>
      <point x="284" y="94" type="curve"/>
      <point x="292" y="124"/>
      <point x="293" y="165"/>
      <point x="293" y="235" type="curve" smooth="yes"/>
      <point x="293" y="292"/>
      <point x="292" y="335"/>
      <point x="289" y="396" type="curve"/>
      <point x="213" y="392" type="line"/>
      <point x="216" y="316"/>
      <point x="217" y="266"/>
      <point x="217" y="233" type="curve" smooth="yes"/>
      <point x="217" y="190"/>
      <point x="217" y="148"/>
      <point x="212" y="125" type="curve" smooth="yes"/>
      <point x="204" y="88"/>
      <point x="185" y="75"/>
      <point x="139" y="75" type="curve" smooth="yes"/>
      <point x="96" y="75"/>
      <point x="64" y="84"/>
      <point x="24" y="112" type="curve"/>
    </contour>
  </outline>
</glyph>
<glyph name="u10F21" format="2">
  <advance width="1263"/>
  <unicode hex="10F21"/>
  <outline>
    <contour>
      <point x="20" y="112" type="line"/>
      <point x="20" y="39" type="line"/>
      <point x="57" y="10"/>
      <point x="97" y="-1"/>
      <point x="138" y="-1" type="curve" smooth="yes"/>
      <point x="190" y="-1"/>
      <point x="229" y="15"/>
      <point x="252" y="37" type="curve"/>
      <point x="289" y="10"/>
      <point x="328" y="-1"/>
      <point x="368" y="-1" type="curve" smooth="yes"/>
      <point x="420" y="-1"/>
      <point x="459" y="15"/>
      <point x="482" y="37" type="curve"/>
      <point x="519" y="10"/>
      <point x="558" y="-1"/>
      <point x="598" y="-1" type="curve" smooth="yes"/>
      <point x="650" y="-1"/>
      <point x="689" y="15"/>
      <point x="712" y="37" type="curve"/>
      <point x="749" y="10"/>
      <point x="788" y="-1"/>
      <point x="828" y="-1" type="curve" smooth="yes"/>
      <point x="880" y="-1"/>
      <point x="919" y="15"/>
      <point x="942" y="37" type="curve"/>
      <point x="979" y="10"/>
      <point x="1018" y="-1"/>
      <point x="1058" y="-1" type="curve" smooth="yes"/>
      <point x="1126" y="-1"/>
      <point x="1171" y="26"/>
      <point x="1190" y="60" type="curve" smooth="yes"/>
      <point x="1210" y="95"/>
      <point x="1213" y="136"/>
      <point x="1213" y="235" type="curve" smooth="yes"/>
      <point x="1213" y="292"/>
      <point x="1212" y="365"/>
      <point x="1209" y="426" type="curve"/>
      <point x="1133" y="422" type="line"/>
      <point x="1136" y="346"/>
      <point x="1137" y="266"/>
      <point x="1137" y="233" type="curve" smooth="yes"/>
      <point x="1137" y="190"/>
      <point x="1137" y="148"/>
      <point x="1132" y="125" type="curve" smooth="yes"/>
      <point x="1124" y="88"/>
      <point x="1105" y="75"/>
      <point x="1059" y="75" type="curve" smooth="yes"/>
      <point x="1027" y="75"/>
      <point x="1001" y="80"/>
      <point x="974" y="94" type="curve"/>
      <point x="982" y="124"/>
      <point x="983" y="165"/>
      <point x="983" y="235" type="curve" smooth="yes"/>
      <point x="983" y="292"/>
      <point x="982" y="355"/>
      <point x="979" y="416" type="curve"/>
      <point x="903" y="412" type="line"/>
      <point x="906" y="336"/>
      <point x="907" y="266"/>
      <point x="907" y="233" type="curve" smooth="yes"/>
      <point x="907" y="190"/>
      <point x="907" y="148"/>
      <point x="902" y="125" type="curve" smooth="yes"/>
      <point x="894" y="88"/>
      <point x="875" y="75"/>
      <point x="829" y="75" type="curve" smooth="yes"/>
      <point x="797" y="75"/>
      <point x="771" y="80"/>
      <point x="744" y="94" type="curve"/>
      <point x="752" y="124"/>
      <point x="753" y="165"/>
      <point x="753" y="235" type="curve" smooth="yes"/>
      <point x="753" y="292"/>
      <point x="752" y="345"/>
      <point x="749" y="406" type="curve"/>
      <point x="673" y="402" type="line"/>
      <point x="676" y="326"/>
      <point x="677" y="266"/>
      <point x="677" y="233" type="curve" smooth="yes"/>
      <point x="677" y="190"/>
      <point x="677" y="148"/>
      <point x="672" y="125" type="curve" smooth="yes"/>
      <point x="664" y="88"/>
      <point x="645" y="75"/>
      <point x="599" y="75" type="curve" smooth="yes"/>
      <point x="567" y="75"/>
      <point x="541" y="80"/>
      <point x="514" y="94" type="curve"/>
      <point x="522" y="124"/>
      <point x="523" y="165"/>
      <point x="523" y="235" type="curve" smooth="yes"/>
      <point x="523" y="292"/>
      <point x="522" y="335"/>
      <point x="519" y="396" type="curve"/>
      <point x="443" y="392" type="line"/>
      <point x="446" y="316"/>
      <point x="447" y="266"/>
      <point x="447" y="233" type="curve" smooth="yes"/>
      <point x="447" y="190"/>
      <point x="447" y="148"/>
      <point x="442" y="125" type="curve" smooth="yes"/>
      <point x="434" y="88"/>
      <point x="415" y="75"/>
      <point x="369" y="75" type="curve" smooth="yes"/>
      <point x="337" y="75"/>
      <point x="311" y="80"/>
      <point x="284" y="94" type="curve"/>
      <point x="292" y="124"/>
      <point x="293" y="165"/>
      <point x="293" y="235" type="curve" smooth="yes"/>
      <point x="293" y="292"/>
      <point x="292" y="325"/>
      <point x="289" y="386" type="curve"/>
      <point x="213" y="382" type="line"/>
      <point x="216" y="306"/>
      <point x="217" y="266"/>
      <point x="217" y="233" type="curve" smooth="yes"/>
      <point x="217" y="190"/>
      <point x="217" y="148"/>
      <point x="212" y="125" type="curve" smooth="yes"/>
      <point x="204" y="88"/>
      <point x="185" y="75"/>
      <point x="139" y="75" type="curve" smooth="yes"/>
      <point x="96" y="75"/>
      <point x="64" y="84"/>
      <point x="24" y="112" type="curve"/>
    </contour>
  </outline>
</glyph>
<glyph name="u10F22" format="2">
  <advance width="444"/>
  <unicode hex="10F22"/>
  <outline>
    <contour>
      <point x="20" y="0" type="line"/>
      <point x="216" y="0" type="line" smooth="yes"/>
      <point x="345" y="0"/>
      <point x="404" y="63"/>
      <point x="404" y="158" type="curve" smooth="yes"/>
      <point x="404" y="309"/>
      <point x="207" y="405"/>
      <point x="135" y="439" type="curve"/>
      <point x="91" y="376" type="line"/>
      <point x="190" y="328"/>
      <point x="329" y="257"/>
      <point x="329" y="154" type="curve" smooth="yes"/>
      <point x="329" y="129"/>
      <point x="316" y="76"/>
      <point x="231" y="76" type="curve" smooth="yes"/>
      <point x="20" y="76" type="line"/>
    </contour>
  </outline>
</glyph>
<glyph name="u10F23" format="2">
  <advance width="454"/>
  <unicode hex="10F23"/>
  <outline>
    <contour>
      <point x="206" y="238" type="curve" smooth="yes"/>
      <point x="229" y="238"/>
      <point x="254" y="240"/>
      <point x="276" y="244" type="curve"/>
      <point x="314" y="226"/>
      <point x="339" y="195"/>
      <point x="339" y="159" type="curve" smooth="yes"/>
      <point x="339" y="136"/>
      <point x="326" y="76"/>
      <point x="241" y="76" type="curve" smooth="yes"/>
      <point x="30" y="76" type="line"/>
      <point x="30" y="0" type="line"/>
      <point x="226" y="0" type="line" smooth="yes"/>
      <point x="355" y="0"/>
      <point x="414" y="75"/>
      <point x="414" y="163" type="curve" smooth="yes"/>
      <point x="414" y="208"/>
      <point x="389" y="243"/>
      <point x="350" y="273" type="curve"/>
      <point x="387" y="299"/>
      <point x="404" y="337"/>
      <point x="404" y="380" type="curve" smooth="yes"/>
      <point x="404" y="485"/>
      <point x="295" y="544"/>
      <point x="100" y="594" type="curve"/>
      <point x="74" y="528" type="line"/>
      <point x="237" y="483"/>
      <point x="329" y="451"/>
      <point x="329" y="376" type="curve" smooth="yes"/>
      <point x="329" y="356"/>
      <point x="316" y="310"/>
      <point x="231" y="310" type="curve" smooth="yes"/>
      <point x="195" y="310"/>
      <point x="118" y="312"/>
      <point x="44" y="316" type="curve"/>
      <point x="44" y="244" type="line"/>
      <point x="103" y="239"/>
      <point x="166" y="238"/>
    </contour>
  </outline>
</glyph>
<glyph name="u10F24" format="2">
  <advance width="454"/>
  <unicode hex="10F24"/>
  <outline>
    <contour>
      <point x="184" y="392" type="curve" smooth="yes"/>
      <point x="219" y="392"/>
      <point x="250" y="393"/>
      <point x="276" y="397" type="curve"/>
      <point x="310" y="384"/>
      <point x="333" y="362"/>
      <point x="333" y="334" type="curve" smooth="yes"/>
      <point x="333" y="278"/>
      <point x="280" y="270"/>
      <point x="235" y="270" type="curve" smooth="yes"/>
      <point x="173" y="270"/>
      <point x="113" y="270"/>
      <point x="48" y="272" type="curve"/>
      <point x="48" y="200" type="line"/>
      <point x="153" y="198"/>
      <point x="163" y="198"/>
      <point x="220" y="198" type="curve" smooth="yes"/>
      <point x="244" y="198"/>
      <point x="265" y="199"/>
      <point x="284" y="203" type="curve"/>
      <point x="317" y="190"/>
      <point x="339" y="168"/>
      <point x="339" y="140" type="curve" smooth="yes"/>
      <point x="339" y="84"/>
      <point x="286" y="76"/>
      <point x="241" y="76" type="curve" smooth="yes"/>
      <point x="30" y="76" type="line"/>
      <point x="30" y="0" type="line"/>
      <point x="226" y="0" type="line" smooth="yes"/>
      <point x="350" y="0"/>
      <point x="414" y="51"/>
      <point x="414" y="129" type="curve" smooth="yes"/>
      <point x="414" y="177"/>
      <point x="391" y="206"/>
      <point x="356" y="228" type="curve"/>
      <point x="390" y="250"/>
      <point x="408" y="282"/>
      <point x="408" y="323" type="curve" smooth="yes"/>
      <point x="408" y="372"/>
      <point x="384" y="401"/>
      <point x="349" y="423" type="curve"/>
      <point x="387" y="448"/>
      <point x="402" y="488"/>
      <point x="402" y="523" type="curve" smooth="yes"/>
      <point x="402" y="611"/>
      <point x="326" y="665"/>
      <point x="96" y="704" type="curve"/>
      <point x="76" y="637" type="line"/>
      <point x="288" y="602"/>
      <point x="327" y="567"/>
      <point x="327" y="521" type="curve" smooth="yes"/>
      <point x="327" y="500"/>
      <point x="316" y="481"/>
      <point x="294" y="473" type="curve" smooth="yes"/>
      <point x="275" y="466"/>
      <point x="247" y="464"/>
      <point x="207" y="464" type="curve" smooth="yes"/>
      <point x="186" y="464"/>
      <point x="142" y="464"/>
      <point x="60" y="468" type="curve"/>
      <point x="60" y="397" type="line"/>
      <point x="104" y="394"/>
      <point x="160" y="392"/>
    </contour>
  </outline>
</glyph>
<glyph name="u10F25" format="2">
  <advance width="1156"/>
  <unicode hex="10F25"/>
  <outline>
    <contour>
      <point x="314" y="268" type="curve" smooth="yes"/>
      <point x="134" y="268"/>
      <point x="29" y="167"/>
      <point x="29" y="17" type="curve" smooth="yes"/>
      <point x="29" y="-50"/>
      <point x="48" y="-115"/>
      <point x="100" y="-169" type="curve"/>
      <point x="159" y="-131" type="line"/>
      <point x="123" y="-94"/>
      <point x="104" y="-35"/>
      <point x="104" y="16" type="curve" smooth="yes"/>
      <point x="104" y="124"/>
      <point x="171" y="194"/>
      <point x="297" y="194" type="curve" smooth="yes"/>
      <point x="452" y="194"/>
      <point x="598" y="112"/>
      <point x="881" y="13" type="curve" smooth="yes"/>
      <point x="901" y="6"/>
      <point x="945" y="-1"/>
      <point x="962" y="-1" type="curve" smooth="yes"/>
      <point x="1022" y="-1"/>
      <point x="1064" y="26"/>
      <point x="1083" y="60" type="curve" smooth="yes"/>
      <point x="1103" y="95"/>
      <point x="1106" y="136"/>
      <point x="1106" y="235" type="curve" smooth="yes"/>
      <point x="1106" y="292"/>
      <point x="1105" y="365"/>
      <point x="1102" y="426" type="curve"/>
      <point x="1026" y="422" type="line"/>
      <point x="1029" y="346"/>
      <point x="1030" y="258"/>
      <point x="1030" y="225" type="curve" smooth="yes"/>
      <point x="1030" y="182"/>
      <point x="1029" y="144"/>
      <point x="1025" y="121" type="curve" smooth="yes"/>
      <point x="1020" y="92"/>
      <point x="1004" y="73"/>
      <point x="963" y="73" type="curve" smooth="yes"/>
      <point x="951" y="73"/>
      <point x="918" y="79"/>
      <point x="902" y="85" type="curve" smooth="yes"/>
      <point x="712" y="154"/>
      <point x="579" y="211"/>
      <point x="471" y="242" type="curve"/>
      <point x="470" y="295"/>
      <point x="470" y="362"/>
      <point x="470" y="385" type="curve" smooth="yes"/>
      <point x="470" y="488" type="line"/>
      <point x="472" y="490" type="line"/>
      <point x="501" y="463" type="line" smooth="yes"/>
      <point x="548" y="419"/>
      <point x="623" y="325"/>
      <point x="668" y="275" type="curve" smooth="yes"/>
      <point x="689" y="251"/>
      <point x="706" y="231"/>
      <point x="722" y="216" type="curve"/>
      <point x="792" y="218" type="line"/>
      <point x="782" y="244"/>
      <point x="773" y="283"/>
      <point x="770" y="296" type="curve" smooth="yes"/>
      <point x="766" y="315"/>
      <point x="761" y="354"/>
      <point x="761" y="372" type="curve" smooth="yes"/>
      <point x="761" y="446"/>
      <point x="781" y="494"/>
      <point x="833" y="508" type="curve"/>
      <point x="833" y="574" type="line"/>
      <point x="732" y="556"/>
      <point x="697" y="476"/>
      <point x="697" y="380" type="curve" smooth="yes"/>
      <point x="697" y="376"/>
      <point x="698" y="358"/>
      <point x="701" y="347" type="curve"/>
      <point x="698" y="346" type="line"/>
      <point x="656" y="397"/>
      <point x="576" y="491"/>
      <point x="531" y="531" type="curve" smooth="yes"/>
      <point x="504" y="555"/>
      <point x="489" y="567"/>
      <point x="456" y="567" type="curve" smooth="yes"/>
      <point x="427" y="567"/>
      <point x="412" y="555"/>
      <point x="404" y="530" type="curve" smooth="yes"/>
      <point x="399" y="514"/>
      <point x="397" y="421"/>
      <point x="397" y="386" type="curve" smooth="yes"/>
      <point x="397" y="366"/>
      <point x="397" y="345"/>
      <point x="398" y="260" type="curve"/>
      <point x="368" y="266"/>
      <point x="341" y="268"/>
    </contour>
  </outline>
</glyph>
<glyph name="u10F26" format="2">
  <advance width="476"/>
  <unicode hex="10F26"/>
  <outline>
    <contour>
      <point x="204" y="71" type="curve"/>
      <point x="200" y="0" type="line"/>
      <point x="337" y="0"/>
      <point x="436" y="100"/>
      <point x="436" y="257" type="curve" smooth="yes"/>
      <point x="436" y="344"/>
      <point x="411" y="440"/>
      <point x="304" y="440" type="curve" smooth="yes"/>
      <point x="231" y="440"/>
      <point x="182" y="380"/>
      <point x="150" y="322" type="curve" smooth="yes"/>
      <point x="-109" y="-149" type="line"/>
      <point x="-48" y="-180" type="line"/>
      <point x="217" y="292" type="line" smooth="yes"/>
      <point x="240" y="333"/>
      <point x="263" y="371"/>
      <point x="301" y="371" type="curve" smooth="yes"/>
      <point x="343" y="371"/>
      <point x="360" y="340"/>
      <point x="360" y="255" type="curve" smooth="yes"/>
      <point x="360" y="157"/>
      <point x="311" y="75"/>
    </contour>
  </outline>
</glyph>
<glyph name="u10F27" format="2">
  <advance width="972"/>
  <unicode hex="10F27"/>
  <outline>
    <contour>
      <point x="456" y="426" type="curve"/>
      <point x="413" y="424"/>
      <point x="350" y="423"/>
      <point x="286" y="423" type="curve" smooth="yes"/>
      <point x="190" y="423"/>
      <point x="100" y="427"/>
      <point x="20" y="434" type="curve"/>
      <point x="20" y="363" type="line"/>
      <point x="85" y="356"/>
      <point x="180" y="351"/>
      <point x="264" y="351" type="curve"/>
      <point x="264" y="0" type="line"/>
      <point x="338" y="0" type="line"/>
      <point x="343" y="137"/>
      <point x="343" y="206"/>
      <point x="343" y="343" type="curve" smooth="yes"/>
      <point x="343" y="351" type="line"/>
      <point x="363" y="351"/>
      <point x="384" y="351"/>
      <point x="399" y="352" type="curve"/>
      <point x="490" y="100"/>
      <point x="565" y="-17"/>
      <point x="734" y="-17" type="curve" smooth="yes"/>
      <point x="893" y="-17"/>
      <point x="942" y="103"/>
      <point x="942" y="178" type="curve" smooth="yes"/>
      <point x="942" y="283"/>
      <point x="880" y="349"/>
      <point x="766" y="349" type="curve" smooth="yes"/>
      <point x="682" y="349"/>
      <point x="618" y="297"/>
      <point x="599" y="229" type="curve"/>
      <point x="653" y="207" type="line"/>
      <point x="671" y="247"/>
      <point x="711" y="279"/>
      <point x="765" y="279" type="curve" smooth="yes"/>
      <point x="836" y="279"/>
      <point x="868" y="239"/>
      <point x="868" y="178" type="curve" smooth="yes"/>
      <point x="868" y="135"/>
      <point x="843" y="55"/>
      <point x="741" y="55" type="curve" smooth="yes"/>
      <point x="619" y="55"/>
      <point x="549" y="136"/>
    </contour>
  </outline>
</glyph>
<glyph name="Aleph.alt" format="2">
  <advance width="539"/>
  <outline>
    <contour>
      <point x="20" y="17" type="curve"/>
      <point x="91" y="-2" type="line"/>
      <point x="128" y="50"/>
      <point x="170" y="123"/>
      <point x="199" y="187" type="curve"/>
      <point x="267" y="113"/>
      <point x="341" y="44"/>
      <point x="399" y="0" type="curve"/>
      <point x="499" y="0" type="line"/>
      <point x="501" y="10" type="line"/>
      <point x="462" y="43"/>
      <point x="422" y="80"/>
      <point x="381" y="118" type="curve"/>
      <point x="436" y="209"/>
      <point x="496" y="349"/>
      <point x="509" y="416" type="curve"/>
      <point x="437" y="431" type="line"/>
      <point x="423" y="372"/>
      <point x="373" y="255"/>
      <point x="328" y="169" type="curve"/>
      <point x="244" y="252"/>
      <point x="165" y="341"/>
      <point x="112" y="427" type="curve"/>
      <point x="42" y="388" type="line"/>
      <point x="67" y="346"/>
      <point x="103" y="297"/>
      <point x="145" y="247" type="curve"/>
      <point x="116" y="176"/>
      <point x="63" y="82"/>
    </contour>
  </outline>
</glyph>
<glyph name="AyinAlt.altA" format="2">
  <advance width="605"/>
  <outline>
    <contour>
      <point x="89" y="426" type="curve"/>
      <point x="15" y="405" type="line"/>
      <point x="105" y="113"/>
      <point x="187" y="-17"/>
      <point x="367" y="-17" type="curve" smooth="yes"/>
      <point x="526" y="-17"/>
      <point x="575" y="103"/>
      <point x="575" y="178" type="curve" smooth="yes"/>
      <point x="575" y="283"/>
      <point x="513" y="349"/>
      <point x="399" y="349" type="curve" smooth="yes"/>
      <point x="315" y="349"/>
      <point x="251" y="297"/>
      <point x="232" y="229" type="curve"/>
      <point x="286" y="207" type="line"/>
      <point x="304" y="247"/>
      <point x="344" y="279"/>
      <point x="398" y="279" type="curve" smooth="yes"/>
      <point x="469" y="279"/>
      <point x="501" y="239"/>
      <point x="501" y="178" type="curve" smooth="yes"/>
      <point x="501" y="135"/>
      <point x="476" y="55"/>
      <point x="374" y="55" type="curve" smooth="yes"/>
      <point x="246" y="55"/>
      <point x="182" y="136"/>
    </contour>
  </outline>
</glyph>
<glyph name="AyinAlt.altB" format="2">
  <advance width="954"/>
  <outline>
    <contour>
      <point x="275" y="70" type="curve" smooth="yes"/>
      <point x="243" y="72" type="line"/>
      <point x="250" y="99" type="line" smooth="yes"/>
      <point x="252" y="106"/>
      <point x="253" y="112"/>
      <point x="253" y="117" type="curve" smooth="yes"/>
      <point x="253" y="137"/>
      <point x="235" y="141"/>
      <point x="209" y="143" type="curve" smooth="yes"/>
      <point x="177" y="145" type="line"/>
      <point x="184" y="171" type="line" smooth="yes"/>
      <point x="186" y="178"/>
      <point x="187" y="184"/>
      <point x="187" y="189" type="curve" smooth="yes"/>
      <point x="187" y="209"/>
      <point x="167" y="215"/>
      <point x="143" y="215" type="curve" smooth="yes"/>
      <point x="110" y="215" type="line"/>
      <point x="111" y="219" type="line"/>
      <point x="138" y="248"/>
      <point x="203" y="312"/>
      <point x="263" y="351" type="curve"/>
      <point x="305" y="287"/>
      <point x="343" y="234"/>
      <point x="378" y="189" type="curve" smooth="yes"/>
      <point x="497" y="35"/>
      <point x="590" y="-17"/>
      <point x="710" y="-17" type="curve" smooth="yes"/>
      <point x="865" y="-17"/>
      <point x="924" y="103"/>
      <point x="924" y="178" type="curve" smooth="yes"/>
      <point x="924" y="283"/>
      <point x="862" y="349"/>
      <point x="748" y="349" type="curve" smooth="yes"/>
      <point x="664" y="349"/>
      <point x="600" y="297"/>
      <point x="581" y="229" type="curve"/>
      <point x="635" y="207" type="line"/>
      <point x="653" y="247"/>
      <point x="693" y="279"/>
      <point x="747" y="279" type="curve" smooth="yes"/>
      <point x="818" y="279"/>
      <point x="850" y="239"/>
      <point x="850" y="178" type="curve" smooth="yes"/>
      <point x="850" y="130"/>
      <point x="819" y="55"/>
      <point x="717" y="55" type="curve" smooth="yes"/>
      <point x="625" y="55"/>
      <point x="561" y="82"/>
      <point x="442" y="233" type="curve" smooth="yes"/>
      <point x="403" y="283"/>
      <point x="359" y="345"/>
      <point x="308" y="426" type="curve"/>
      <point x="266" y="426" type="line"/>
      <point x="185" y="381"/>
      <point x="72" y="275"/>
      <point x="49" y="224" type="curve" smooth="yes"/>
      <point x="40" y="203"/>
      <point x="35" y="183"/>
      <point x="32" y="163" type="curve"/>
      <point x="118" y="163" type="line"/>
      <point x="110" y="139"/>
      <point x="101" y="105"/>
      <point x="101" y="91" type="curve"/>
      <point x="184" y="91" type="line"/>
      <point x="176" y="67"/>
      <point x="167" y="32"/>
      <point x="167" y="18" type="curve"/>
      <point x="247" y="18" type="line"/>
      <point x="239" y="-6"/>
      <point x="230" y="-39"/>
      <point x="230" y="-51" type="curve"/>
      <point x="302" y="-51" type="line" smooth="yes"/>
      <point x="362" y="-51"/>
      <point x="370" y="-57"/>
      <point x="370" y="-73" type="curve" smooth="yes"/>
      <point x="370" y="-88"/>
      <point x="361" y="-102"/>
      <point x="284" y="-132" type="curve"/>
      <point x="311" y="-180" type="line"/>
      <point x="386" y="-151"/>
      <point x="441" y="-113"/>
      <point x="441" y="-64" type="curve" smooth="yes"/>
      <point x="441" y="-19"/>
      <point x="410" y="7"/>
      <point x="334" y="7" type="curve" smooth="yes"/>
      <point x="310" y="7" type="line"/>
      <point x="316" y="26" type="line" smooth="yes"/>
      <point x="318" y="33"/>
      <point x="319" y="39"/>
      <point x="319" y="44" type="curve" smooth="yes"/>
      <point x="319" y="64"/>
      <point x="301" y="68"/>
    </contour>
  </outline>
</glyph>
<glyph name="HeFin.alt" format="2">
  <advance width="740"/>
  <outline>
    <contour>
      <point x="591" y="76" type="curve" smooth="yes"/>
      <point x="20" y="76" type="line"/>
      <point x="20" y="0" type="line"/>
      <point x="586" y="0" type="line" smooth="yes"/>
      <point x="664" y="0"/>
      <point x="695" y="44"/>
      <point x="695" y="106" type="curve" smooth="yes"/>
      <point x="695" y="131"/>
      <point x="690" y="159"/>
      <point x="677" y="199" type="curve" smooth="yes"/>
      <point x="658" y="258"/>
      <point x="625" y="340"/>
      <point x="590" y="426" type="curve"/>
      <point x="507" y="413" type="line"/>
      <point x="549" y="312"/>
      <point x="589" y="213"/>
      <point x="611" y="147" type="curve" smooth="yes"/>
      <point x="615" y="134"/>
      <point x="619" y="116"/>
      <point x="619" y="104" type="curve" smooth="yes"/>
      <point x="619" y="92"/>
      <point x="616" y="76"/>
    </contour>
  </outline>
</glyph>
<glyph name="Kaph.cut" format="2">
  <advance width="488"/>
  <outline>
    <contour>
      <point x="21" y="-94" type="curve"/>
      <point x="21" y="-165" type="line"/>
      <point x="183" y="-155"/>
      <point x="286" y="-52"/>
      <point x="360" y="100" type="curve" smooth="yes"/>
      <point x="409" y="201"/>
      <point x="445" y="316"/>
      <point x="464" y="417" type="curve"/>
      <point x="392" y="426" type="line"/>
      <point x="380" y="366"/>
      <point x="361" y="298"/>
      <point x="337" y="233" type="curve"/>
      <point x="200" y="234"/>
      <point x="149" y="342"/>
      <point x="133" y="434" type="curve"/>
      <point x="57" y="416" type="line"/>
      <point x="77" y="293"/>
      <point x="136" y="176"/>
      <point x="308" y="162" type="curve"/>
      <point x="250" y="29"/>
      <point x="169" y="-81"/>
    </contour>
  </outline>
</glyph>
<glyph name="Lamedh.altA" format="2">
  <advance width="466"/>
  <outline>
    <contour>
      <point x="79" y="553" type="curve" smooth="yes"/>
      <point x="160" y="432"/>
      <point x="275" y="245"/>
      <point x="330" y="145" type="curve" smooth="yes"/>
      <point x="337" y="133"/>
      <point x="345" y="116"/>
      <point x="345" y="104" type="curve" smooth="yes"/>
      <point x="345" y="92"/>
      <point x="342" y="76"/>
      <point x="317" y="76" type="curve" smooth="yes"/>
      <point x="20" y="76" type="line"/>
      <point x="20" y="0" type="line"/>
      <point x="312" y="0" type="line" smooth="yes"/>
      <point x="390" y="0"/>
      <point x="421" y="44"/>
      <point x="421" y="106" type="curve" smooth="yes"/>
      <point x="421" y="131"/>
      <point x="406" y="171"/>
      <point x="386" y="208" type="curve" smooth="yes"/>
      <point x="332" y="306"/>
      <point x="222" y="478"/>
      <point x="140" y="602" type="curve" smooth="yes"/>
      <point x="132" y="614"/>
      <point x="129" y="624"/>
      <point x="129" y="637" type="curve" smooth="yes"/>
      <point x="129" y="653"/>
      <point x="137" y="666"/>
      <point x="156" y="689" type="curve" smooth="yes"/>
      <point x="242" y="790" type="line"/>
      <point x="188" y="831" type="line"/>
      <point x="103" y="733" type="line" smooth="yes"/>
      <point x="75" y="701"/>
      <point x="54" y="667"/>
      <point x="54" y="628" type="curve" smooth="yes"/>
      <point x="54" y="598"/>
      <point x="64" y="575"/>
    </contour>
  </outline>
</glyph>
<glyph name="Lamedh.altB" format="2">
  <advance width="505"/>
  <outline>
    <contour>
      <point x="26" y="504" type="curve"/>
      <point x="92" y="484" type="line"/>
      <point x="119" y="560"/>
      <point x="144" y="629"/>
      <point x="165" y="680" type="curve"/>
      <point x="224" y="543"/>
      <point x="332" y="277"/>
      <point x="376" y="147" type="curve" smooth="yes"/>
      <point x="380" y="134"/>
      <point x="384" y="116"/>
      <point x="384" y="104" type="curve" smooth="yes"/>
      <point x="384" y="92"/>
      <point x="381" y="76"/>
      <point x="356" y="76" type="curve" smooth="yes"/>
      <point x="20" y="76" type="line"/>
      <point x="20" y="0" type="line"/>
      <point x="351" y="0" type="line" smooth="yes"/>
      <point x="429" y="0"/>
      <point x="460" y="44"/>
      <point x="460" y="106" type="curve" smooth="yes"/>
      <point x="460" y="131"/>
      <point x="455" y="159"/>
      <point x="442" y="199" type="curve" smooth="yes"/>
      <point x="395" y="342"/>
      <point x="303" y="554"/>
      <point x="254" y="667" type="curve" smooth="yes"/>
      <point x="235" y="711"/>
      <point x="221" y="747"/>
      <point x="168" y="747" type="curve" smooth="yes"/>
      <point x="120" y="747"/>
      <point x="103" y="707"/>
      <point x="85" y="665" type="curve" smooth="yes"/>
      <point x="66" y="620"/>
      <point x="46" y="565"/>
    </contour>
  </outline>
</glyph>
<glyph name="Pe.alt" format="2">
  <advance width="426"/>
  <outline>
    <contour>
      <point x="56" y="214" type="curve"/>
      <point x="124" y="239" type="line"/>
      <point x="121" y="249"/>
      <point x="119" y="259"/>
      <point x="119" y="271" type="curve" smooth="yes"/>
      <point x="119" y="329"/>
      <point x="157" y="371"/>
      <point x="214" y="371" type="curve" smooth="yes"/>
      <point x="267" y="371"/>
      <point x="320" y="343"/>
      <point x="320" y="240" type="curve" smooth="yes"/>
      <point x="320" y="45"/>
      <point x="151" y="-11"/>
      <point x="-38" y="-41" type="curve"/>
      <point x="-38" y="-109" type="line"/>
      <point x="292" y="-74"/>
      <point x="396" y="80"/>
      <point x="396" y="244" type="curve" smooth="yes"/>
      <point x="396" y="346"/>
      <point x="346" y="440"/>
      <point x="218" y="440" type="curve" smooth="yes"/>
      <point x="119" y="440"/>
      <point x="43" y="366"/>
      <point x="43" y="272" type="curve" smooth="yes"/>
      <point x="43" y="251"/>
      <point x="49" y="227"/>
    </contour>
  </outline>
</glyph>
<glyph name="Pe.altcut" format="2">
  <advance width="426"/>
  <outline>
    <contour>
      <point x="64" y="214" type="curve"/>
      <point x="132" y="239" type="line"/>
      <point x="129" y="249"/>
      <point x="127" y="259"/>
      <point x="127" y="271" type="curve" smooth="yes"/>
      <point x="127" y="329"/>
      <point x="165" y="371"/>
      <point x="222" y="371" type="curve" smooth="yes"/>
      <point x="275" y="371"/>
      <point x="328" y="343"/>
      <point x="328" y="240" type="curve" smooth="yes"/>
      <point x="328" y="81"/>
      <point x="219" y="-3"/>
      <point x="20" y="-41" type="curve"/>
      <point x="20" y="-109" type="line"/>
      <point x="311" y="-65"/>
      <point x="404" y="88"/>
      <point x="404" y="244" type="curve" smooth="yes"/>
      <point x="404" y="346"/>
      <point x="354" y="440"/>
      <point x="226" y="440" type="curve" smooth="yes"/>
      <point x="127" y="440"/>
      <point x="51" y="366"/>
      <point x="51" y="272" type="curve" smooth="yes"/>
      <point x="51" y="251"/>
      <point x="57" y="227"/>
    </contour>
  </outline>
</glyph>
<glyph name="Pe.cut" format="2">
  <advance width="434"/>
  <outline>
    <contour>
      <point x="20" y="-41" type="curve"/>
      <point x="20" y="-109" type="line"/>
      <point x="312" y="-65"/>
      <point x="404" y="88"/>
      <point x="404" y="244" type="curve" smooth="yes"/>
      <point x="404" y="346"/>
      <point x="354" y="440"/>
      <point x="226" y="440" type="curve" smooth="yes"/>
      <point x="127" y="440"/>
      <point x="51" y="366"/>
      <point x="51" y="272" type="curve" smooth="yes"/>
      <point x="51" y="158"/>
      <point x="138" y="96"/>
      <point x="272" y="96" type="curve" smooth="yes"/>
      <point x="286" y="96" type="line"/>
      <point x="247" y="41"/>
      <point x="175" y="-11"/>
    </contour>
    <contour>
      <point x="328" y="240" type="curve" smooth="yes"/>
      <point x="328" y="219"/>
      <point x="326" y="190"/>
      <point x="318" y="167" type="curve"/>
      <point x="270" y="167" type="line" smooth="yes"/>
      <point x="193" y="167"/>
      <point x="127" y="195"/>
      <point x="127" y="271" type="curve" smooth="yes"/>
      <point x="127" y="329"/>
      <point x="165" y="371"/>
      <point x="222" y="371" type="curve" smooth="yes"/>
      <point x="275" y="371"/>
      <point x="328" y="343"/>
    </contour>
  </outline>
</glyph>
<glyph name="SadheFin.alt" format="2">
  <advance width="831"/>
  <outline>
    <contour>
      <point x="440" y="353" type="curve" smooth="yes"/>
      <point x="493" y="255"/>
      <point x="521" y="197"/>
      <point x="521" y="151" type="curve" smooth="yes"/>
      <point x="521" y="99"/>
      <point x="482" y="61"/>
      <point x="352" y="61" type="curve" smooth="yes"/>
      <point x="281" y="61"/>
      <point x="162" y="80"/>
      <point x="53" y="140" type="curve"/>
      <point x="10" y="77" type="line"/>
      <point x="127" y="6"/>
      <point x="264" y="-15"/>
      <point x="347" y="-15" type="curve" smooth="yes"/>
      <point x="540" y="-15"/>
      <point x="597" y="66"/>
      <point x="597" y="154" type="curve" smooth="yes"/>
      <point x="597" y="218"/>
      <point x="565" y="284"/>
      <point x="532" y="343" type="curve"/>
      <point x="562" y="336"/>
      <point x="599" y="332"/>
      <point x="635" y="332" type="curve" smooth="yes"/>
      <point x="698" y="332"/>
      <point x="769" y="343"/>
      <point x="811" y="361" type="curve"/>
      <point x="811" y="432" type="line"/>
      <point x="806" y="432" type="line"/>
      <point x="767" y="418"/>
      <point x="707" y="404"/>
      <point x="650" y="404" type="curve" smooth="yes"/>
      <point x="619" y="404"/>
      <point x="580" y="407"/>
      <point x="554" y="412" type="curve" smooth="yes"/>
      <point x="517" y="419"/>
      <point x="501" y="426"/>
      <point x="472" y="426" type="curve" smooth="yes"/>
      <point x="449" y="426"/>
      <point x="431" y="410"/>
      <point x="431" y="387" type="curve" smooth="yes"/>
      <point x="431" y="377"/>
      <point x="433" y="367"/>
    </contour>
  </outline>
</glyph>
<glyph name="Samekh.alt" format="2">
  <advance width="659"/>
  <outline>
    <contour>
      <point x="311" y="421" type="curve"/>
      <point x="317" y="356" type="line"/>
      <point x="350" y="367"/>
      <point x="382" y="371"/>
      <point x="410" y="371" type="curve" smooth="yes"/>
      <point x="465" y="371"/>
      <point x="550" y="344"/>
      <point x="550" y="232" type="curve" smooth="yes"/>
      <point x="550" y="112"/>
      <point x="462" y="64"/>
      <point x="364" y="64" type="curve" smooth="yes"/>
      <point x="354" y="64"/>
      <point x="331" y="65"/>
      <point x="318" y="68" type="curve"/>
      <point x="312" y="0" type="line"/>
      <point x="330" y="-4"/>
      <point x="346" y="-5"/>
      <point x="365" y="-5" type="curve" smooth="yes"/>
      <point x="534" y="-5"/>
      <point x="629" y="95"/>
      <point x="629" y="235" type="curve" smooth="yes"/>
      <point x="629" y="358"/>
      <point x="544" y="440"/>
      <point x="416" y="440" type="curve" smooth="yes"/>
      <point x="386" y="440"/>
      <point x="344" y="434"/>
    </contour>
    <contour>
      <point x="20" y="266" type="curve"/>
      <point x="20" y="201" type="line"/>
      <point x="39" y="197"/>
      <point x="56" y="196"/>
      <point x="72" y="196" type="curve" smooth="yes"/>
      <point x="192" y="196"/>
      <point x="246" y="278"/>
      <point x="246" y="404" type="curve" smooth="yes"/>
      <point x="246" y="447"/>
      <point x="245" y="540"/>
      <point x="242" y="586" type="curve"/>
      <point x="170" y="583" type="line"/>
      <point x="173" y="526"/>
      <point x="174" y="425"/>
      <point x="174" y="400" type="curve" smooth="yes"/>
      <point x="174" y="300"/>
      <point x="138" y="262"/>
      <point x="64" y="262" type="curve" smooth="yes"/>
      <point x="55" y="262"/>
      <point x="36" y="263"/>
    </contour>
  </outline>
</glyph>
<glyph name="Taw.alt" format="2">
  <advance width="664"/>
  <outline>
    <contour>
      <point x="316" y="416" type="curve"/>
      <point x="322" y="351" type="line"/>
      <point x="355" y="362"/>
      <point x="387" y="366"/>
      <point x="415" y="366" type="curve" smooth="yes"/>
      <point x="470" y="366"/>
      <point x="555" y="344"/>
      <point x="555" y="232" type="curve" smooth="yes"/>
      <point x="555" y="112"/>
      <point x="467" y="64"/>
      <point x="369" y="64" type="curve" smooth="yes"/>
      <point x="359" y="64"/>
      <point x="336" y="65"/>
      <point x="323" y="68" type="curve"/>
      <point x="317" y="0" type="line"/>
      <point x="335" y="-4"/>
      <point x="351" y="-5"/>
      <point x="370" y="-5" type="curve" smooth="yes"/>
      <point x="539" y="-5"/>
      <point x="634" y="95"/>
      <point x="634" y="235" type="curve" smooth="yes"/>
      <point x="634" y="358"/>
      <point x="549" y="435"/>
      <point x="421" y="435" type="curve" smooth="yes"/>
      <point x="391" y="435"/>
      <point x="349" y="429"/>
    </contour>
    <contour>
      <point x="20" y="65" type="curve"/>
      <point x="20" y="0" type="line"/>
      <point x="39" y="-4"/>
      <point x="56" y="-5"/>
      <point x="72" y="-5" type="curve" smooth="yes"/>
      <point x="190" y="-5"/>
      <point x="246" y="64"/>
      <point x="246" y="207" type="curve" smooth="yes"/>
      <point x="246" y="250"/>
      <point x="245" y="427"/>
      <point x="242" y="473" type="curve"/>
      <point x="170" y="470" type="line"/>
      <point x="173" y="413"/>
      <point x="174" y="234"/>
      <point x="174" y="209" type="curve" smooth="yes"/>
      <point x="174" y="89"/>
      <point x="138" y="61"/>
      <point x="64" y="61" type="curve" smooth="yes"/>
      <point x="55" y="61"/>
      <point x="36" y="62"/>
    </contour>
  </outline>
</glyph>
<glyph name="TawFin.alt" format="2">
  <advance width="1001"/>
  <outline>
    <contour>
      <point x="342" y="-15" type="curve" smooth="yes"/>
      <point x="582" y="-15"/>
      <point x="645" y="136"/>
      <point x="645" y="336" type="curve"/>
      <point x="763" y="336" type="line" smooth="yes"/>
      <point x="870" y="336"/>
      <point x="882" y="286"/>
      <point x="882" y="223" type="curve" smooth="yes"/>
      <point x="882" y="108"/>
      <point x="790" y="63"/>
      <point x="682" y="63" type="curve" smooth="yes"/>
      <point x="669" y="63" type="line"/>
      <point x="669" y="-1" type="line"/>
      <point x="681" y="-2"/>
      <point x="694" y="-2"/>
      <point x="706" y="-2" type="curve" smooth="yes"/>
      <point x="838" y="-2"/>
      <point x="961" y="66"/>
      <point x="961" y="235" type="curve" smooth="yes"/>
      <point x="961" y="338"/>
      <point x="920" y="407"/>
      <point x="772" y="407" type="curve" smooth="yes"/>
      <point x="632" y="407" type="line"/>
      <point x="627" y="452" type="line"/>
      <point x="554" y="449" type="line"/>
      <point x="555" y="407"/>
      <point x="562" y="361"/>
      <point x="566" y="336" type="curve"/>
      <point x="566" y="176"/>
      <point x="531" y="61"/>
      <point x="354" y="61" type="curve" smooth="yes"/>
      <point x="281" y="61"/>
      <point x="162" y="80"/>
      <point x="53" y="140" type="curve"/>
      <point x="10" y="77" type="line"/>
      <point x="127" y="6"/>
      <point x="259" y="-15"/>
    </contour>
  </outline>
</glyph>
<glyph name="TawFinV.alt" format="2">
  <advance width="569"/>
  <outline>
    <contour>
      <point x="221" y="421" type="curve"/>
      <point x="227" y="356" type="line"/>
      <point x="260" y="367"/>
      <point x="292" y="371"/>
      <point x="320" y="371" type="curve" smooth="yes"/>
      <point x="375" y="371"/>
      <point x="460" y="344"/>
      <point x="460" y="232" type="curve" smooth="yes"/>
      <point x="460" y="112"/>
      <point x="372" y="64"/>
      <point x="274" y="64" type="curve" smooth="yes"/>
      <point x="264" y="64"/>
      <point x="241" y="65"/>
      <point x="228" y="68" type="curve"/>
      <point x="222" y="0" type="line"/>
      <point x="240" y="-4"/>
      <point x="256" y="-5"/>
      <point x="275" y="-5" type="curve" smooth="yes"/>
      <point x="444" y="-5"/>
      <point x="539" y="95"/>
      <point x="539" y="235" type="curve" smooth="yes"/>
      <point x="539" y="358"/>
      <point x="454" y="440"/>
      <point x="326" y="440" type="curve" smooth="yes"/>
      <point x="296" y="440"/>
      <point x="254" y="434"/>
    </contour>
    <contour>
      <point x="62" y="-175" type="line"/>
      <point x="136" y="-175" type="line"/>
      <point x="141" y="-38"/>
      <point x="141" y="57"/>
      <point x="141" y="194" type="curve" smooth="yes"/>
      <point x="141" y="207"/>
      <point x="141" y="406"/>
      <point x="131" y="473" type="curve"/>
      <point x="55" y="470" type="line"/>
      <point x="61" y="395"/>
      <point x="62" y="215"/>
      <point x="62" y="174" type="curve" smooth="yes"/>
    </contour>
  </outline>
</glyph>
